<svg xmlns="http://www.w3.org/2000/svg" aria-hidden="true" style="position:absolute;width:0;height:0;overflow:hidden">
  <defs>
    <symbol id="icon-close" viewBox="0 0 32 32">
      <path fill="none" stroke="#edfcff" stroke-linecap="round" stroke-linejoin="round" stroke-width="2.667" d="m4 4 24 24M4 28 28 4" style="stroke:var(--color1, #edfcff)"/>
    </symbol>
    <symbol id="icon-logo" viewBox="0 0 41 32">
      <path fill="#fc0" d="M.247.039 20.27 3.234 40.32.647v20.212L19.624 31.638l-.1-.055L0 20.855V-.001l.247.039zm.597 20.793 18.785 10.322 19.827-10.327-19.19-3.508L.844 20.831zm-.417-.358 7.467-1.35V5.766l6.827.91v11.213l5.333-.964V3.632L.427.5v19.974zM20.48 3.638v13.288l19.413 3.549V1.134L20.48 3.639zM8.32 19.047l5.973-1.08V7.05L8.32 6.254v12.793zm28.16-6.21h-5.76V7.52l.196-.015 5.564-.445v5.778zm-2.667-.427h2.24v-1.92h-2.24v1.92zm-2.666 0h2.24v-1.92h-2.24v1.92zm2.666-4.71v2.363h2.24V7.52l-2.24.179zm-2.666.213v2.15h2.24V7.734l-2.24.179z" style="fill:var(--color2, #fc0)"/>
      <path fill="#fc0" d="M27.944 24.356c.009.003-.005.018-.032.033l-.068.039c-.224.129-.866.497-1.558.862l-.16.085c-.214.113-.378.217-.787.425-1.726.877-3.464 1.731-5.17 2.635-.498.264-.979.514-1.481.776-.411.214-1.185.606-1.343.701-.04.024-.04.02-.045.014-.006-.003-.009-.011.033-.036.158-.095.928-.485 1.338-.699.502-.262.981-.51 1.478-.774a335.016 335.016 0 0 1 5.165-2.668c.404-.205.576-.279.789-.392l.161-.085a50.512 50.512 0 0 0 1.612-.894c.027-.015.056-.025.065-.022zm-6.943 3.803c.004.006-.016.022-.044.037l-.099.051c-.353.182-.62.32-.855.449-.129.071-.527.289-1.047.54l-.355.17-.03.015h-.001c-.08.038-.14.066-.196.094l-.003.002a6.823 6.823 0 0 0-.244.128c-.082.045-.153.084-.235.127-.029.015-.053.022-.057.016s.017-.023.046-.038l.241-.13a6.9 6.9 0 0 1 .244-.128l.006-.003.202-.097.031-.015.351-.168c.507-.245.896-.459 1.021-.528.242-.133.513-.273.864-.454l.101-.052c.028-.014.054-.021.058-.015zm-.841.076c.005.005-.013.021-.04.036l-.334.178c-.155.082-.227.121-.334.176-.296.153-.565.292-.815.423-.421.219-.738.386-.93.487-.028.015-.052.021-.055.015s.016-.023.044-.037c.19-.1.505-.266.925-.484.25-.13.52-.271.817-.424a39.246 39.246 0 0 0 .662-.35c.027-.015.054-.022.059-.017zm4.677-4.856c.009.003-.005.017-.03.031l-.066.036c-.217.119-.836.46-1.504.795l-.155.078c-.205.103-.364.2-.76.39-1.666.801-3.344 1.575-4.997 2.398-.477.237-.956.469-1.436.701-.401.193-1.14.536-1.313.618-.027.013-.051.018-.054.012s.017-.022.044-.035c.172-.082.909-.423 1.308-.615.48-.231.957-.463 1.433-.7a418.309 418.309 0 0 1 4.993-2.43c.392-.189.557-.255.762-.358l.155-.078c.659-.33 1.269-.665 1.488-.786l.069-.038c.026-.014.054-.023.063-.02zm-6.71 3.49c.004.006-.015.022-.042.035l-.096.046c-.35.169-.599.29-.83.408-.12.062-.508.262-1.012.486l-.346.153-.028.012h-.001l-.191.084-.004.001c-.148.067-.323.159-.465.227-.027.013-.051.018-.054.012s.017-.022.044-.035c.147-.07.325-.163.471-.229l.006-.003.196-.086.029-.013.343-.151c.493-.219.871-.414.989-.475.236-.122.491-.244.838-.412l.098-.048c.027-.013.051-.019.055-.013zm-.811.04c.005.005-.013.02-.04.034l-.323.161c-.147.074-.219.11-.326.161l-.787.379-.9.432c-.027.013-.051.018-.054.012s.017-.022.044-.035l.895-.43.789-.38c.104-.05.172-.084.316-.156l.328-.164c.027-.013.052-.02.058-.015zm18.151-6.131c.006.004-.011.02-.038.035a1.893 1.893 0 0 0-.073.04l-.004.002-.064.034a.226.226 0 0 1-.022.011l-.044.024-.01.006-.08.044a5.76 5.76 0 0 1-.29.143l-.097.045c-.147.068-.267.124-.406.183l-.057.023a6.62 6.62 0 0 0-.261.114 26.79 26.79 0 0 0-.958.475l-.274.137a17.795 17.795 0 0 0-.596.303c-.218.116-.362.198-.483.265l-.012.007-.015.009a8.227 8.227 0 0 1-.658.33 14.53 14.53 0 0 0-.372.168c-.066.031-.136.067-.243.122l-.1.051c-.166.085-.395.201-.751.373a15.51 15.51 0 0 0-.253.125l-.071.035a6.425 6.425 0 0 1-.272.13c-.07.031-.225.101-.395.183a8.458 8.458 0 0 0-.477.246l-.039.023a6.77 6.77 0 0 0-.317.191c-.393.286-1.178.653-1.69.909l-.02.01a119.549 119.549 0 0 0-1.194.605l-.165.086-.009.005-.192.1c-.271.138-.481.246-.675.347l-.103.053-.395.204a35.218 35.218 0 0 0-.593.31l-.189.1-.333.175-.028.015c-.115.061-.222.118-.346.182-.028.015-.054.022-.058.016s.016-.023.045-.037c.121-.062.225-.117.34-.178l.028-.015.337-.177.182-.096.105-.056c.117-.062.273-.144.498-.259l.392-.202.104-.054c.194-.101.405-.21.677-.348l.185-.096a8.28 8.28 0 0 1 .181-.094l.032-.016c.144-.074.575-.295 1.168-.59l.005-.003a27.238 27.238 0 0 0 1.097-.567l.044-.022a4.75 4.75 0 0 0 .515-.299c.101-.067.227-.139.338-.204l.039-.022c.142-.083.338-.18.511-.264.175-.084.335-.157.41-.19.074-.033.155-.072.251-.12l.068-.034.26-.129c.352-.17.578-.284.741-.368l.094-.048c.11-.056.191-.098.268-.133.136-.063.246-.114.383-.173.189-.082.447-.214.611-.307l.027-.015a17.928 17.928 0 0 1 .987-.523l.12-.059c.097-.048.183-.09.263-.131.502-.258.789-.397.977-.484.144-.067.225-.1.284-.124l.048-.02c.131-.056.242-.107.389-.175l.1-.046c.115-.053.199-.096.263-.13l.076-.041.001-.001.01-.005c.004-.001.005-.002.007-.004l.002-.002.001-.001.009-.005.003-.002a.88.88 0 0 1 .051-.026l.055-.03.004-.002.076-.041c.028-.015.056-.023.063-.019zm.386-.506c0 .008-.025.026-.052.038l-.111.05a.047.047 0 0 0-.01.005c-.031.014-.059.026-.097.045l-.135.067a7.466 7.466 0 0 1-.423.197c-.239.106-.724.344-1.526.745l-.85.424-.011.005c-.321.16-.633.315-.861.43-.883.442-1.742.892-2.636 1.325l-.449.23c-.406.207-.717.366-1.007.531a24.93 24.93 0 0 1-.713.378l-.735.386-.159.085c-.214.113-.383.202-.791.41a461.403 461.403 0 0 1-2.254 1.131l-.069.034-.151.074c-.387.193-.667.34-1.101.57-.028.015-.055.023-.061.018s.013-.022.042-.037c.435-.23.719-.379 1.111-.575l.157-.078.067-.032.441-.218c.458-.229 1.297-.651 1.805-.909.404-.205.57-.293.783-.406l.16-.085.735-.387.235-.123c.25-.131.409-.215.464-.246.3-.17.625-.336 1.034-.545l.44-.225a49.333 49.333 0 0 1 2.64-1.327l.862-.43.011-.005.85-.423a50.049 50.049 0 0 1 1.546-.755c.231-.102.305-.138.399-.185l.008-.004h.001l.007-.005.006-.003a.017.017 0 0 1 .005-.002l.007-.004.113-.054.107-.05.01-.004.107-.049c.027-.013.052-.018.051-.01zM22.278 22.48c.009.004-.005.017-.031.03l-.066.033c-.217.107-.838.411-1.507.707l-.155.069c-.206.091-.365.179-.761.347-1.666.705-3.342 1.383-4.996 2.11-.478.21-.956.414-1.437.618-.401.17-1.14.47-1.313.543-.027.011-.051.015-.053.009s.017-.021.045-.032c.172-.072.909-.371 1.308-.54.48-.204.957-.408 1.434-.618a394.384 394.384 0 0 1 4.993-2.142c.392-.166.557-.222.762-.313l.156-.069c.66-.292 1.27-.592 1.49-.7a5.64 5.64 0 0 0 .069-.034c.026-.012.054-.02.062-.016zm-6.718 3.103c.003.006-.016.021-.043.032l-.096.041c-.35.149-.599.255-.83.361-.12.055-.508.232-1.013.428l-.345.133-.028.011h-.001a7.686 7.686 0 0 0-.194.075c-.148.058-.323.14-.465.2-.027.011-.051.015-.054.009s.018-.021.045-.032c.147-.061.325-.145.471-.202a.014.014 0 0 1 .006-.002l.195-.075a26.399 26.399 0 0 0 .371-.142c.492-.191.87-.364.988-.418.236-.108.491-.216.839-.365l.098-.042c.027-.011.051-.016.055-.01zm-.798-.005c.005.006-.014.02-.04.032a32.82 32.82 0 0 0-.324.143c-.147.065-.219.097-.326.142l-.786.333c-.401.17-.727.309-.9.381-.027.011-.051.015-.054.009s.018-.021.045-.032l.895-.379.789-.335.316-.137.328-.145c.027-.012.052-.017.057-.011zM32.089 20.1c.007.004-.009.019-.036.033l-.069.036-.004.002-.062.032-.021.01-.042.022a.047.047 0 0 1-.01.005l-.079.041c-.07.036-.159.08-.279.132l-.092.04a9.858 9.858 0 0 1-.393.168l-.055.021c-.056.022-.123.048-.25.103-.17.075-.444.202-.924.438-.082.04-.17.082-.265.126l-.111.052c-.138.065-.291.139-.464.227-.211.108-.349.183-.464.245l-.012.006-.015.008c-.17.092-.435.222-.635.304-.125.051-.228.096-.359.153a5.576 5.576 0 0 0-.235.112l-.096.047a29.31 29.31 0 0 1-.725.342l-.244.115-.068.032c-.093.044-.18.084-.262.118-.068.028-.218.092-.382.167a7.138 7.138 0 0 0-.46.226l-.038.021c-.109.061-.22.122-.307.177-.378.268-1.137.602-1.632.835l-.019.009c-.57.269-.983.47-1.124.538a.254.254 0 0 1-.031.014l-.16.08a53.44 53.44 0 0 1-1.327.648c-.216.104-.361.176-.474.232l-.099.05-.185.092c-.113.055-.217.108-.319.159l-.027.013-.337.167c-.027.013-.052.019-.056.013s.016-.022.043-.035c.113-.055.221-.108.331-.164l.028-.014c.102-.051.207-.104.322-.16l.178-.089.102-.051c.114-.057.262-.13.48-.235l.38-.185.1-.049c.183-.09.394-.193.655-.319l.177-.087.01-.005c.052-.026.105-.053.166-.082l.031-.015c.141-.068.555-.269 1.128-.54a9.946 9.946 0 0 1 1.107-.543l.15-.075c.137-.072.233-.128.348-.201a6.22 6.22 0 0 1 .326-.189l.038-.021c.137-.076.325-.166.493-.242.169-.077.323-.143.396-.173.072-.03.15-.065.242-.109l.066-.031c.075-.036.159-.076.251-.118.339-.156.558-.261.715-.337l.09-.044c.105-.052.184-.09.258-.123.131-.058.239-.105.37-.158.181-.074.43-.196.59-.282l.027-.014c.115-.062.258-.139.473-.25.179-.092.337-.168.477-.234l.115-.054.254-.121c.482-.237.763-.367.941-.446.137-.06.216-.091.272-.112l.046-.018c.126-.05.24-.1.376-.161l.095-.042c.11-.049.191-.088.254-.12l.074-.039.001-.001.01-.005.007-.004.002-.002h.001l.009-.005.003-.002.01-.005.04-.02.053-.028.004-.002.072-.038c.026-.014.053-.021.06-.017zm.373-.489c0 .008-.023.024-.05.036l-.11.048-.01.004-.094.042-.13.062a46.978 46.978 0 0 0-1.876.867l-.82.39-.01.005-.83.395c-.852.407-1.679.82-2.542 1.216l-.433.211c-.391.19-.692.336-.972.488-.061.033-.225.115-.461.233l-.228.114-.709.354-.155.078c-.205.103-.368.185-.764.375-.488.234-1.307.623-1.745.83l-.432.201-.066.03-.145.067c-.378.177-.639.307-1.068.521-.027.013-.053.02-.058.015s.013-.02.04-.034a42.263 42.263 0 0 1 1.228-.595l.064-.029a264.689 264.689 0 0 0 2.17-1.028c.392-.189.552-.268.756-.371l.155-.078.71-.355.227-.113c.241-.12.395-.198.448-.226.29-.158.603-.31.998-.502l.424-.207a46.558 46.558 0 0 1 2.545-1.219l.831-.395.01-.005.819-.39a46.053 46.053 0 0 1 1.49-.695c.228-.096.29-.126.382-.17l.008-.003.007-.004.017-.008.109-.05.104-.046.01-.004.105-.046c.027-.012.05-.015.049-.008zM19.318 21.58c.008.004-.006.016-.033.028l-.068.029c-.223.094-.86.363-1.545.621l-.158.06c-.211.08-.375.158-.78.302-1.704.61-3.417 1.191-5.11 1.823-.489.183-.978.36-1.47.536-.41.147-1.165.405-1.342.467-.027.01-.051.012-.054.006s.018-.02.046-.03c.176-.062.929-.319 1.337-.465.491-.176.979-.353 1.467-.535a388.116 388.116 0 0 1 5.109-1.855c.401-.144.569-.19.779-.27l.16-.06c.675-.254 1.303-.519 1.529-.614l.071-.03c.026-.011.055-.016.063-.012zm-6.887 2.717c.003.006-.018.02-.045.03l-.098.035c-.358.129-.613.221-.849.313-.123.048-.521.203-1.036.37l-.353.113-.029.009-.195.062-.004.001c-.151.05-.33.122-.476.173-.028.01-.052.012-.054.005s.019-.02.047-.03c.15-.053.333-.126.482-.175l.006-.002.199-.063.03-.01.35-.111c.503-.163.891-.315 1.011-.362.242-.094.503-.188.858-.316l.1-.036c.028-.01.053-.013.056-.007zm17.091-4.68c.006.005-.01.019-.037.031l-.069.032-.004.002-.061.028-.021.01-.043.02-.01.005-.079.037a4.672 4.672 0 0 1-.371.152c-.137.053-.259.1-.392.146l-.055.018a5.1 5.1 0 0 0-.249.089c-.17.065-.444.176-.924.384l-.265.111-.111.046a15.614 15.614 0 0 0-.928.418l-.012.006a33.896 33.896 0 0 0-2.308.947l-.068.028c-.093.039-.18.074-.262.103-.068.024-.217.08-.381.145a6.448 6.448 0 0 0-.806.379c-.382.246-1.14.537-1.634.742l-.019.008c-.57.237-.983.413-1.124.473l-.018.008-.013.005-.16.07-.009.004c-.056.025-.114.051-.184.08-.259.11-.47.201-.652.28l-.099.043-.383.165c-.216.092-.361.156-.474.205l-.099.044-.185.081-.319.14-.027.012c-.111.049-.22.098-.337.148-.027.012-.052.016-.055.01s.016-.021.043-.032c.113-.048.221-.096.331-.145l.027-.012.323-.142a14.725 14.725 0 0 0 .28-.123c.114-.051.262-.115.48-.208l.38-.164.1-.043.655-.281.177-.077.009-.004.166-.073.031-.013c.141-.06.555-.237 1.127-.475l.005-.002c.383-.159.6-.249.76-.324.126-.059.221-.101.3-.135l.043-.018.15-.066c.137-.064.234-.115.349-.181.097-.056.22-.117.327-.17l.038-.019c.138-.068.326-.147.493-.214s.322-.124.395-.15c.071-.025.149-.057.242-.095l.066-.028.251-.103a30.27 30.27 0 0 0 .804-.335c.106-.046.184-.08.258-.108.131-.05.238-.091.369-.137.18-.063.43-.171.59-.248l.027-.013c.116-.056.258-.125.474-.222.179-.081.337-.148.477-.206l.115-.048c.093-.038.176-.073.254-.107.482-.209.763-.323.941-.392.137-.052.215-.078.271-.097a9.668 9.668 0 0 0 .421-.155l.095-.037c.11-.042.191-.077.253-.106l.074-.034.001-.001.01-.004.007-.003.002-.001.001-.001.009-.005.003-.002.01-.005.04-.017.054-.025.004-.002.072-.033c.027-.012.053-.018.06-.013zm-17.888 4.629c.004.006-.015.019-.042.029l-.332.124c-.151.057-.224.084-.334.123a338.872 338.872 0 0 1-1.726.617c-.028.01-.052.012-.054.006s.019-.02.047-.03l.915-.327.808-.29c.107-.038.176-.064.323-.12l.336-.126c.028-.01.054-.014.058-.008zm18.225-5.091c.027-.01.049-.013.048-.005s-.023.022-.05.033l-.109.041-.01.004-.094.036-.13.054c-.095.04-.167.071-.405.158-.232.085-.696.277-1.47.602l-.819.343-.011.005-.83.347c-.852.358-1.68.724-2.541 1.07l-.433.186c-.391.168-.692.296-.973.432-.062.03-.225.103-.462.207l-.227.1-.71.313-.155.069c-.206.091-.368.164-.764.332-.488.206-1.306.547-1.745.729l-.432.177-.066.027-.144.058c-.377.156-.639.271-1.068.46-.027.012-.052.017-.057.011s.013-.02.04-.032c.429-.189.695-.305 1.078-.463l.15-.061.064-.025.428-.175c.438-.181 1.255-.522 1.741-.728.392-.166.552-.237.756-.328l.156-.069.71-.314.228-.1c.241-.107.395-.175.447-.201a23.8 23.8 0 0 1 .999-.444l.424-.182a44.348 44.348 0 0 1 2.545-1.072l.83-.348.01-.004.819-.343a44.8 44.8 0 0 1 1.489-.61c.228-.083.29-.109.382-.148l.008-.003.007-.004a.016.016 0 0 0 .006-.003l.004-.002.007-.003.109-.045.104-.04.01-.004.105-.04zm-3.143-.022c.006.005-.011.018-.038.028l-.07.028-.004.001-.063.025a.195.195 0 0 1-.022.008l-.044.017-.01.004-.081.032a4.737 4.737 0 0 1-.285.101l-.094.03c-.14.045-.264.085-.4.123l-.056.015a4.048 4.048 0 0 0-.254.075 23.35 23.35 0 0 0-.944.332c-.084.031-.174.062-.271.096l-.113.039c-.141.049-.298.105-.475.174-.216.083-.358.142-.476.191l-.012.005-.015.006a6.906 6.906 0 0 1-.649.23c-.127.037-.232.07-.365.112a5.388 5.388 0 0 0-.24.085l-.098.036c-.163.059-.391.141-.741.259l-.249.087-.07.024c-.095.033-.184.064-.268.088a11.311 11.311 0 0 0-.859.296l-.039.017a5.523 5.523 0 0 0-.316.143c-.395.224-1.169.471-1.674.647l-.02.007c-.583.204-1.005.356-1.149.408l-.018.007-.013.005-.165.061-.009.003-.188.07c-.265.095-.481.174-.667.242l-.101.037-.392.143c-.221.079-.37.135-.485.178l-.101.038-.189.071c-.116.042-.222.082-.327.122l-.028.01c-.113.043-.226.085-.345.128-.028.01-.052.013-.055.006s.017-.019.045-.029c.116-.042.226-.083.339-.126l.028-.01.33-.123.182-.068.104-.039c.117-.044.268-.1.491-.18l.389-.142.102-.038c.187-.069.404-.148.67-.243a7.77 7.77 0 0 0 .181-.067l.01-.004.17-.063a127.44 127.44 0 0 1 1.184-.421l.005-.002c.392-.137.613-.215.777-.28.129-.052.227-.088.307-.118l.044-.016c.06-.022.107-.039.153-.058.141-.056.24-.101.359-.161.1-.051.226-.105.336-.152a6.83 6.83 0 0 1 .544-.202c.172-.058.329-.106.404-.128.073-.021.152-.049.247-.082l.068-.024.256-.089c.346-.117.571-.197.73-.255l.093-.034c.108-.04.188-.069.264-.093.134-.043.243-.077.377-.115.184-.053.439-.147.603-.215l.028-.011c.119-.049.265-.11.485-.195.184-.071.345-.129.488-.179l.118-.041c.095-.033.18-.062.26-.092.493-.181.78-.279.962-.337.14-.045.219-.066.277-.082l.047-.012a9.98 9.98 0 0 0 .383-.118l.097-.031a4.46 4.46 0 0 0 .259-.091l.076-.03.002-.001.01-.004.007-.003.003-.002a.05.05 0 0 1 .012-.005l.01-.004a.77.77 0 0 1 .04-.015l.055-.022.004-.001.074-.03c.027-.011.054-.015.06-.01zm-10.075 1.429c.008.005-.007.016-.033.026l-.068.025c-.221.084-.852.324-1.53.551l-.157.053c-.208.07-.371.141-.772.267-1.685.533-3.378 1.038-5.052 1.594-.484.161-.967.315-1.453.47-.405.129-1.152.353-1.327.407-.027.008-.051.01-.053.003s.019-.019.046-.028c.174-.054.918-.277 1.322-.405.485-.154.968-.308 1.451-.469a376.196 376.196 0 0 1 5.052-1.626c.397-.126.562-.165.77-.235l.158-.053a41.004 41.004 0 0 0 1.583-.572c.026-.01.054-.014.062-.01zm-6.872 2.411c.027-.009.052-.011.055-.004s-.017.019-.045.028l-.097.031c-.354.113-.606.193-.84.275-.122.042-.516.18-1.024.324l-.348.097-.028.008h-.001l-.192.053-.004.001c-.149.043-.327.107-.47.152-.027.008-.051.01-.053.003s.019-.019.047-.028c.148-.046.329-.111.477-.153l.006-.002.197-.055a31.973 31.973 0 0 1 2.223-.698l.099-.031zm26.71-2.85c.05-.018-.021.039-.112.079l-.01.005c-.031.014-.059.026-.097.045l-.135.066c-.105.052-.788.39-1.036.5-.239.106-.717.36-1.518.76-.225.112-.542.257-.852.418l-.002.001c-.313.162-.619.322-.85.438-.233.117-.377.182-.518.247l-.004.002c-.138.063-.272.124-.485.231l-.515.257c-.391.195-.829.413-1.14.573-.028.014-.054.021-.059.016s.015-.022.043-.036c.313-.161.758-.383 1.15-.579l.508-.253c.221-.111.362-.175.501-.239l.005-.002c.139-.064.277-.126.502-.239.227-.114.53-.272.845-.435h.001c.309-.16.618-.336.847-.45.797-.398 1.298-.63 1.55-.742.445-.197.932-.471 1.381-.662zm-9.4-1.432c.028-.009.05-.01.049-.002s-.025.021-.052.03l-.111.035-.01.003-.096.031a6.934 6.934 0 0 1-.546.182c-.237.071-.711.237-1.502.518l-.838.296a196.644 196.644 0 0 0-.86.304c-.871.309-1.718.628-2.599.925l-.444.161c-.4.145-.708.257-.996.377-.063.026-.231.09-.473.18l-.233.087-.726.273-.159.06c-.21.08-.377.143-.782.288-.499.178-1.336.473-1.784.629l-.442.152-.067.022-.148.05a43.32 43.32 0 0 0-1.092.398c-.028.01-.054.014-.058.008s.014-.019.042-.029a43.831 43.831 0 0 1 1.256-.455l.065-.022.438-.15c.447-.156 1.284-.45 1.781-.627a36.9 36.9 0 0 0 .774-.285l.16-.06.728-.273.232-.088c.247-.093.404-.152.459-.175.298-.124.619-.24 1.023-.387l.434-.158c.86-.339 1.736-.645 2.603-.926l.849-.3a.049.049 0 0 0 .011-.004l.837-.296a43.369 43.369 0 0 1 1.523-.524c.232-.07.296-.093.39-.127l.008-.003.007-.003.006-.002.004-.001a8.438 8.438 0 0 1 .118-.04l.106-.034.01-.003.107-.034zM9.046 22.883c.004.006-.015.018-.042.028l-.328.109c-.149.05-.222.074-.33.108l-.795.252-.91.288c-.027.008-.051.01-.053.003s.019-.019.046-.028l.905-.286.798-.253c.105-.033.174-.056.32-.105l.333-.111c.027-.009.053-.011.057-.005zm24.019-3.4c.05-.017-.021.039-.11.076l-.01.004-.094.042-.13.062c-.095.046-.757.36-.997.461-.233.098-.69.333-1.463.703-.216.103-.521.235-.821.385l-.002.001c-.298.148-.598.298-.819.403-.223.106-.363.168-.499.227l-.004.002c-.133.058-.262.114-.466.211-.14.067-.312.149-.498.236-.375.178-.801.379-1.1.526-.027.013-.052.019-.057.014s.014-.021.041-.034c.302-.148.733-.352 1.11-.531l.491-.233a12.332 12.332 0 0 1 .486-.22c.134-.058.269-.116.484-.219.217-.104.514-.252.815-.401.298-.149.596-.311.816-.416.768-.367 1.249-.58 1.494-.683.429-.181.891-.434 1.332-.613zm-9.116-1.036c.005.006-.012.017-.038.027l-.07.025-.004.001a1.165 1.165 0 0 1-.063.022l-.022.007a1.205 1.205 0 0 0-.043.015l-.01.004-.08.028a4.54 4.54 0 0 1-.282.088l-.093.026a9.705 9.705 0 0 1-.395.105l-.055.012c-.056.013-.123.028-.25.063-.171.048-.448.131-.933.289a13.54 13.54 0 0 1-.268.083l-.112.035a16.918 16.918 0 0 0-.942.322l-.012.005-.015.006a6.651 6.651 0 0 1-.642.201c-.126.031-.229.059-.361.096-.065.018-.133.04-.237.074l-.098.031c-.161.052-.386.124-.732.226l-.246.075-.069.021a5.434 5.434 0 0 1-.265.076 10.675 10.675 0 0 0-.85.258l-.038.015a6.297 6.297 0 0 0-.314.128c-.393.206-1.157.418-1.656.572l-.02.006c-.576.178-.994.312-1.136.357l-.018.006-.013.004c-.058.018-.109.036-.163.054l-.009.003a96.33 96.33 0 0 0-.847.273l-.1.032-.388.125a48.306 48.306 0 0 0-.58.189l-.187.062-.323.107-.028.009c-.112.038-.223.075-.341.112-.027.009-.052.01-.055.004s.018-.019.045-.028c.115-.036.223-.073.335-.11l.028-.009.327-.108.18-.06.103-.035c.116-.039.265-.088.485-.158l.385-.124.1-.033.663-.213c.067-.021.123-.04.179-.059a6.762 6.762 0 0 1 .178-.058l.031-.01c.142-.046.562-.18 1.14-.358l.005-.001c.388-.12.606-.187.769-.245.128-.046.224-.078.304-.104l.043-.014.152-.05a4.1 4.1 0 0 0 .356-.145c.1-.046.225-.094.334-.136l.038-.015a10.346 10.346 0 0 1 .898-.273c.072-.018.15-.042.244-.07l.067-.02.254-.078a29.175 29.175 0 0 0 .813-.252l.261-.081c.132-.037.24-.067.372-.099.181-.045.434-.127.596-.187l.027-.01c.118-.044.262-.098.481-.173.182-.063.341-.113.483-.157l.117-.036c.094-.029.178-.054.257-.08.488-.159.772-.245.951-.295.138-.038.216-.056.273-.069l.046-.011a9.111 9.111 0 0 0 .473-.128c.111-.031.193-.057.256-.08l.075-.027h.001l.01-.003.007-.002.002-.001h.001l.009-.004.003-.001.01-.004.04-.013.054-.019.004-.002.073-.026c.027-.009.053-.013.059-.007zm-10.294.978c.008.005-.007.016-.033.025l-.068.023c-.221.077-.854.295-1.532.499l-.157.048c-.208.063-.372.128-.772.241-1.685.476-3.376.923-5.052 1.421-.484.144-.968.283-1.454.42-.405.115-1.151.313-1.326.362-.027.008-.051.008-.053.001s.019-.018.047-.026c.174-.048.918-.246 1.321-.36.485-.137.968-.275 1.451-.419a370.58 370.58 0 0 1 5.053-1.454c.397-.112.562-.145.77-.208l.158-.048c.668-.201 1.291-.416 1.515-.493l.07-.025c.026-.009.054-.012.062-.007zm-6.878 2.176c.027-.008.052-.009.054-.002s-.018.018-.045.026l-.097.028c-.354.101-.606.173-.84.246-.122.038-.516.162-1.024.289a32.19 32.19 0 0 1-.376.092h-.001l-.192.047-.004.001c-.149.038-.327.096-.47.135-.027.008-.051.008-.053.002s.019-.019.047-.026c.148-.041.33-.1.477-.137l.006-.002.197-.048.029-.007.345-.084c.496-.123.88-.244 1-.282.24-.075.498-.149.85-.249l.099-.028zm17.54-3.579c.027-.008.049-.008.047 0s-.025.02-.052.028l-.11.03a3.988 3.988 0 0 0-.236.07c-.096.03-.169.053-.409.116a43.32 43.32 0 0 0-1.484.45l-.828.258-.011.003-.839.262c-.861.27-1.7.55-2.57.808l-.438.141c-.396.127-.7.225-.985.332a28.35 28.35 0 0 1-.468.159l-.23.077-.719.24-.157.053c-.208.07-.373.125-.773.252a268.309 268.309 0 0 1-2.2.681l-.066.02-.146.044c-.381.117-.646.204-1.08.349-.027.009-.052.011-.057.005s.014-.018.042-.027a39.918 39.918 0 0 1 1.242-.397l.064-.019c.087-.026.212-.063.432-.131.442-.136 1.268-.392 1.76-.548.397-.126.558-.18.766-.25l.158-.053.72-.24.23-.077c.244-.082.4-.134.454-.154a21.71 21.71 0 0 1 1.012-.341l.429-.138c.851-.3 1.717-.567 2.574-.809.221-.07.531-.166.84-.262l.01-.003.828-.258a42.034 42.034 0 0 1 1.504-.456c.229-.06.292-.08.385-.109a.019.019 0 0 1 .007-.002l.007-.003.006-.002.005-.002a.019.019 0 0 1 .007-.002l.11-.033.105-.029.01-.003.105-.029zm-18.31 3.469c.027-.008.052-.009.056-.003s-.015.018-.043.026l-.328.098c-.149.045-.222.066-.33.097l-.795.225-.91.257c-.027.008-.051.008-.053.001s.019-.018.047-.026l.905-.255.798-.226c.105-.03.174-.05.32-.094l.333-.1zm24.497-2.435c.05-.014-.022.038-.111.07a.126.126 0 0 1-.01.003l-.094.036-.13.054c-.095.04-.757.317-.996.404-.232.085-.69.294-1.463.619-.216.091-.52.205-.82.338l-.002.001c-.298.131-.599.264-.819.356-.222.094-.363.146-.499.198a11.378 11.378 0 0 0-.47.187l-.497.208c-.375.156-.8.334-1.099.463-.027.012-.052.016-.056.01s.015-.02.042-.032c.302-.13.733-.31 1.11-.467l.491-.205a11.521 11.521 0 0 1 .485-.192c.134-.05.268-.101.483-.192.217-.091.514-.222.815-.354h.001c.299-.131.597-.276.817-.369a37.495 37.495 0 0 1 1.492-.598c.428-.156.891-.383 1.33-.537zm-9.547-1.497c.006.006-.012.017-.039.026l-.07.022-.004.001-.063.02-.022.007-.043.014-.01.003-.08.026a4.265 4.265 0 0 1-.282.078l-.093.022c-.138.034-.26.064-.394.092l-.055.011c-.056.011-.123.024-.25.055-.171.042-.447.116-.933.257a16.346 16.346 0 0 1-.38.105 14.952 14.952 0 0 0-.942.291l-.012.004-.015.005a6.823 6.823 0 0 1-.642.179c-.125.027-.229.052-.36.084-.065.016-.133.036-.238.066l-.097.028c-.161.046-.386.11-.732.201l-.247.067-.069.019a6.133 6.133 0 0 1-.264.068c-.068.015-.218.05-.383.092a6.496 6.496 0 0 0-.466.136l-.039.013c-.111.039-.225.079-.314.118-.396.192-1.158.378-1.658.515a.117.117 0 0 1-.02.005c-.576.158-.994.278-1.136.318l-.018.005-.013.004c-.058.016-.109.032-.163.048a66.145 66.145 0 0 0-.955.276l-.388.112a25.366 25.366 0 0 0-.58.17l-.188.056-.323.096a24.74 24.74 0 0 1-.369.109c-.027.008-.052.009-.054.002s.018-.018.045-.026a22.482 22.482 0 0 0 .363-.107l.327-.097.18-.054.103-.031c.116-.035.265-.079.486-.142l.385-.111.101-.029c.185-.054.399-.116.663-.19a9.62 9.62 0 0 0 .189-.056c.053-.016.107-.033.168-.05a18.88 18.88 0 0 0 1.944-.549c.128-.042.225-.07.304-.093l.043-.012a4.524 4.524 0 0 0 .508-.178c.1-.043.225-.087.335-.125l.038-.013c.14-.049.331-.103.5-.146s.325-.08.398-.096c.072-.016.15-.036.244-.062l.067-.018.253-.069a35.842 35.842 0 0 0 .813-.224c.107-.031.186-.054.26-.072.132-.032.24-.058.371-.086.181-.039.434-.112.596-.167l.027-.009a17.95 17.95 0 0 1 .965-.297l.117-.032.257-.072c.488-.142.772-.218.951-.262.138-.034.216-.049.272-.06l.046-.009c.126-.026.24-.054.378-.088l.095-.023c.111-.027.193-.051.256-.071l.075-.024h.001l.01-.003.007-.002.002-.001h.001l.009-.003a.01.01 0 0 0 .003-.001l.01-.003.04-.012.055-.018.004-.001.073-.023c.027-.008.053-.011.059-.005zm6.772 1.07c.05-.011-.024.036-.115.063l-.01.003-.096.031a37.42 37.42 0 0 1-1.15.394c-.237.071-.706.254-1.497.535-.221.079-.531.176-.838.29l-.003.001a62.63 62.63 0 0 1-.838.309 11.7 11.7 0 0 1-.51.169l-.004.001c-.136.042-.267.084-.476.158l-.508.18c-.384.135-.818.287-1.124.399-.028.01-.053.014-.057.008s.016-.019.044-.03c.309-.113.749-.268 1.135-.403l.502-.177c.216-.077.355-.12.492-.163a12.568 12.568 0 0 0 .498-.166c.222-.079.526-.193.834-.308.306-.114.612-.242.838-.322a36.674 36.674 0 0 1 1.525-.512c.436-.131.912-.331 1.36-.46zm-6.395-1.482c.027-.007.049-.006.047.002s-.025.019-.052.026l-.11.026a.03.03 0 0 1-.01.002l-.095.023-.131.036a41.715 41.715 0 0 0-1.892.502l-.828.23-.011.003-.838.233c-.861.241-1.7.492-2.57.72l-.438.127c-.396.114-.7.201-.986.298-.063.021-.228.072-.468.143l-.231.069-.719.215-.157.048c-.208.063-.373.113-.774.226a280.12 280.12 0 0 1-2.265.624l-.146.038c-.381.104-.646.182-1.08.312-.027.008-.053.01-.057.004s.015-.018.042-.026c.435-.13.704-.209 1.09-.315l.152-.04.064-.017.432-.116c.442-.121 1.268-.349 1.76-.488.397-.112.558-.161.766-.224l.158-.048.72-.216.23-.069c.245-.073.4-.12.454-.139.296-.1.613-.192 1.012-.306l.429-.124a41.316 41.316 0 0 1 2.573-.721l.84-.233.01-.003.828-.23a43.186 43.186 0 0 1 1.504-.405c.229-.052.291-.07.384-.096l.008-.002.007-.003.006-.002.004-.001a2.725 2.725 0 0 1 .117-.031l.105-.026.01-.002.105-.025zm14.522 3.419c.002.006-.017.023-.045.036l-.2.099c-.028.014-.053.02-.056.014s.018-.023.046-.037l.2-.099c.028-.014.053-.019.055-.013zm-10.901-2.577c.05-.009-.025.035-.115.058a3.082 3.082 0 0 0-.105.028l-.131.041c-.096.03-.766.239-1.006.301-.234.061-.698.222-1.48.467-.219.069-.525.151-.829.253l-.002.001c-.302.1-.606.202-.829.272-.225.071-.366.109-.503.146l-.004.001c-.134.036-.264.072-.47.136l-.502.156c-.379.118-.809.251-1.112.349-.027.009-.052.011-.055.005s.016-.019.043-.028c.305-.099.741-.234 1.122-.352l.496-.155c.214-.067.35-.104.485-.141l.005-.001c.135-.037.27-.074.488-.142.219-.069.52-.169.825-.27h.001c.302-.101.605-.215.828-.285.777-.244 1.261-.38 1.507-.444.43-.112.902-.29 1.343-.399zm7.509 1.913c.003.006-.017.022-.044.035l-.194.092c-.027.013-.051.018-.054.012s.017-.022.044-.035l.194-.092c.027-.013.051-.018.054-.012zm-2.566-.462c.002.006-.018.021-.045.032l-.194.081c-.027.011-.051.015-.053.009s.018-.021.045-.032l.194-.081c.027-.011.051-.015.054-.009zm-7.931-2.305c.049-.007-.026.035-.115.054l-.01.002-.095.023-.131.036c-.097.027-.765.212-1.005.267-.233.053-.698.199-1.48.417-.219.061-.525.134-.829.225l-.002.001c-.302.09-.607.181-.829.243-.225.063-.367.097-.503.129l-.004.001c-.134.032-.264.063-.47.12l-.503.139c-.379.105-.809.223-1.111.311-.027.008-.052.009-.055.003s.017-.018.044-.026c.305-.089.741-.209 1.122-.314l.496-.137c.214-.06.35-.092.485-.125l.004-.001c.135-.032.27-.065.487-.125.219-.061.521-.151.825-.242h.001c.303-.09.606-.194.829-.256a34.48 34.48 0 0 1 1.505-.392c.43-.097.902-.259 1.343-.353zm5.135 1.844c.002.007-.019.02-.046.03l-.199.07c-.028.01-.052.012-.054.005s.019-.02.046-.03l.199-.07c.028-.01.052-.012.054-.006zm-2.824-.666c.027-.008.051-.01.053-.003s-.019.019-.046.028l-.196.061c-.027.008-.051.01-.053.003s.019-.019.046-.028l.196-.061zm-2.991-.877c.027-.008.051-.008.052-.001s-.019.018-.047.026l-.196.054c-.027.008-.051.008-.053.002s.019-.019.047-.026l.196-.054z" style="fill:var(--color2, #fc0)"/>
    </symbol>
    <symbol id="icon-menu" viewBox="0 0 32 32">
      <path fill="none" stroke="#edfcff" stroke-linecap="round" stroke-linejoin="round" stroke-width="2.667" d="M4 16h24M4 8h24M4 24h24" style="stroke:var(--color1, #edfcff)"/>
    </symbol>
    <symbol id="icon-minus" viewBox="0 0 32 32">
      <path fill="#edfcff" d="M27.755 17.959H4.245A1.962 1.962 0 0 1 2.286 16a1.962 1.962 0 0 1 1.959-1.959h23.51A1.962 1.962 0 0 1 29.714 16a1.962 1.962 0 0 1-1.959 1.959z" style="fill:var(--color1, #edfcff)"/>
    </symbol>
    <symbol id="icon-plus" viewBox="0 0 32 32">
      <path fill="#edfcff" d="M27.755 17.959h-9.796v9.796A1.962 1.962 0 0 1 16 29.714a1.962 1.962 0 0 1-1.959-1.959v-9.796H4.245A1.962 1.962 0 0 1 2.286 16a1.962 1.962 0 0 1 1.959-1.959h9.796V4.245A1.962 1.962 0 0 1 16 2.286a1.962 1.962 0 0 1 1.959 1.959v9.796h9.796A1.962 1.962 0 0 1 29.714 16a1.962 1.962 0 0 1-1.959 1.959z" style="fill:var(--color1, #edfcff)"/>
    </symbol>
  </defs>
</svg>
